<svg width="66" height="66" viewBox="0 0 66 66" fill="none" xmlns="http://www.w3.org/2000/svg">
<circle cx="33" cy="33" r="33" fill="#FFA819"/>
<path d="M46.9163 32.9527C46.8099 32.8929 46.7035 32.841 46.5971 32.7892C46.7035 32.7333 46.8099 32.6854 46.9163 32.6256C50.018 30.8106 51.0821 26.7977 49.2889 23.6583C47.4956 20.519 43.5308 19.442 40.4291 21.257C40.3227 21.3168 40.2281 21.3886 40.1296 21.4524C40.1374 21.3327 40.1493 21.2131 40.1493 21.0894C40.1493 17.4594 37.2446 14.5195 33.6621 14.5195C30.0795 14.5195 27.1749 17.4594 27.1749 21.0854C27.1749 21.2091 27.1867 21.3248 27.1946 21.4484C27.096 21.3806 26.9975 21.3128 26.895 21.253C23.7933 19.438 19.8245 20.515 18.0352 23.6543C16.242 26.7937 17.3061 30.8106 20.4078 32.6216C20.5142 32.6815 20.6207 32.7333 20.7271 32.7852C20.6207 32.841 20.5142 32.8889 20.4078 32.9487C17.3022 34.7637 16.238 38.7806 18.0313 41.92C19.8245 45.0593 23.7894 46.1364 26.8911 44.3214C26.9975 44.2615 27.0921 44.1897 27.1906 44.1259C27.1827 44.2456 27.1709 44.3652 27.1709 44.4889C27.1709 48.1149 30.0756 51.0548 33.6581 51.0548C37.2407 51.0548 40.1453 48.1149 40.1453 44.4889C40.1453 44.3652 40.1335 44.2496 40.1256 44.1259C40.2241 44.1937 40.3227 44.2615 40.4251 44.3214C43.5269 46.1364 47.4956 45.0593 49.2849 41.92C51.0821 38.7806 50.018 34.7637 46.9163 32.9527ZM33.6621 38.2262C30.6943 38.2262 28.2863 35.7889 28.2863 32.7852C28.2863 29.7815 30.6943 27.3442 33.6621 27.3442C36.6298 27.3442 39.0339 29.7815 39.0339 32.7852C39.0339 35.7929 36.6298 38.2262 33.6621 38.2262Z" fill="white"/>
</svg>
