<svg width="65" height="65" viewBox="0 0 65 65" fill="none" xmlns="http://www.w3.org/2000/svg">
<circle cx="32.5" cy="32.5" r="32.5" fill="#FF6668"/>
<path d="M46.2052 32.4539C46.1004 32.395 45.9956 32.3439 45.8908 32.2928C45.9956 32.2378 46.1004 32.1907 46.2052 32.1317C49.2599 30.3442 50.3079 26.3921 48.5418 23.3003C46.7758 20.2085 42.871 19.1478 39.8163 20.9353C39.7115 20.9943 39.6183 21.065 39.5213 21.1278C39.529 21.01 39.5407 20.8921 39.5407 20.7703C39.5407 17.1953 36.68 14.3 33.1518 14.3C29.6235 14.3 26.7629 17.1953 26.7629 20.7664C26.7629 20.8882 26.7745 21.0021 26.7823 21.1239C26.6852 21.0571 26.5882 20.9903 26.4873 20.9314C23.4326 19.1439 19.5239 20.2046 17.7617 23.2964C15.9956 26.3882 17.0436 30.3442 20.0984 32.1278C20.2032 32.1867 20.308 32.2378 20.4128 32.2889C20.308 32.3439 20.2032 32.391 20.0984 32.45C17.0398 34.2374 15.9918 38.1935 17.7578 41.2853C19.5239 44.3771 23.4287 45.4378 26.4834 43.6503C26.5882 43.5914 26.6814 43.5206 26.7784 43.4578C26.7706 43.5756 26.759 43.6935 26.759 43.8153C26.759 47.3863 29.6196 50.2817 33.1479 50.2817C36.6762 50.2817 39.5368 47.3863 39.5368 43.8153C39.5368 43.6935 39.5252 43.5796 39.5174 43.4578C39.6144 43.5246 39.7115 43.5914 39.8124 43.6503C42.8671 45.4378 46.7758 44.3771 48.538 41.2853C50.3079 38.1935 49.2599 34.2374 46.2052 32.4539ZM33.1518 37.6474C30.229 37.6474 27.8574 35.2471 27.8574 32.2889C27.8574 29.3307 30.229 26.9303 33.1518 26.9303C36.0745 26.9303 38.4422 29.3307 38.4422 32.2889C38.4422 35.251 36.0745 37.6474 33.1518 37.6474Z" fill="white"/>
</svg>
