<svg width="128" height="128" viewBox="0 0 128 128" fill="none" xmlns="http://www.w3.org/2000/svg">
<circle cx="64" cy="64" r="64" fill="#FF6668"/>
<path d="M90.9901 63.9094C90.7837 63.7933 90.5774 63.6927 90.371 63.5922C90.5774 63.4839 90.7837 63.391 90.9901 63.275C97.0056 59.755 99.0693 51.9723 95.5915 45.8839C92.1137 39.7955 84.4243 37.7067 78.4089 41.2267C78.2025 41.3427 78.0191 41.482 77.828 41.6058C77.8432 41.3737 77.8662 41.1416 77.8662 40.9018C77.8662 33.8618 72.2329 28.1602 65.2849 28.1602C58.337 28.1602 52.7037 33.8618 52.7037 40.894C52.7037 41.1338 52.7266 41.3582 52.7419 41.598C52.5508 41.4665 52.3597 41.335 52.161 41.2189C46.1456 37.6989 38.4485 39.7877 34.9784 45.8762C31.5006 51.9646 33.5643 59.755 39.5798 63.2672C39.7861 63.3833 39.9925 63.4839 40.1989 63.5844C39.9925 63.6927 39.7861 63.7856 39.5798 63.9016C33.5567 67.4216 31.4929 75.212 34.9707 81.3004C38.4485 87.3889 46.1379 89.4776 52.1534 85.9577C52.3597 85.8416 52.5432 85.7024 52.7343 85.5786C52.719 85.8107 52.6961 86.0428 52.6961 86.2826C52.6961 93.3148 58.3293 99.0164 65.2773 99.0164C72.2253 99.0164 77.8585 93.3148 77.8585 86.2826C77.8585 86.0428 77.8356 85.8184 77.8203 85.5786C78.0114 85.7101 78.2025 85.8416 78.4012 85.9577C84.4167 89.4776 92.1137 87.3889 95.5839 81.3004C99.0693 75.212 97.0056 67.4216 90.9901 63.9094ZM65.2849 74.1367C59.5294 74.1367 54.8592 69.4098 54.8592 63.5844C54.8592 57.759 59.5294 53.0322 65.2849 53.0322C71.0405 53.0322 75.7031 57.759 75.7031 63.5844C75.7031 69.4176 71.0405 74.1367 65.2849 74.1367Z" fill="white"/>
</svg>
