<svg width="128" height="128" viewBox="0 0 128 128" fill="none" xmlns="http://www.w3.org/2000/svg">
<circle cx="64" cy="64" r="64" fill="#5CACC5"/>
<path d="M31.5078 90.5847H38.2032C40.0444 90.5847 41.5509 89.1078 41.5509 87.3027V57.7642C41.5509 55.9591 40.0444 54.4822 38.2032 54.4822H31.5078V90.5847ZM97.8926 67.2165C98.2608 66.396 98.4617 65.5099 98.4617 64.5909V61.0463C98.4617 57.436 95.4487 54.4822 91.7663 54.4822H73.354L76.4338 39.2206C76.6012 38.4986 76.5008 37.7109 76.166 37.0545C75.3961 35.5776 74.4252 34.2319 73.2201 33.0504L71.6801 31.5078L50.2214 52.5458C48.9493 53.7929 48.2463 55.4668 48.2463 57.2063V82.9376C48.2463 87.1386 51.7614 90.5847 56.0799 90.5847H83.2297C85.573 90.5847 87.7825 89.3704 88.9877 87.4011L97.8926 67.2165Z" fill="white"/>
</svg>
