<svg width="65" height="65" viewBox="0 0 65 65" fill="none" xmlns="http://www.w3.org/2000/svg">
<circle cx="32.5" cy="32.5" r="32.5" fill="#5CACC5"/>
<path d="M16 46H19.4C20.335 46 21.1 45.25 21.1 44.3333V29.3333C21.1 28.4167 20.335 27.6667 19.4 27.6667H16V46ZM49.711 34.1333C49.898 33.7167 50 33.2667 50 32.8V31C50 29.1667 48.47 27.6667 46.6 27.6667H37.25L38.814 19.9167C38.899 19.55 38.848 19.15 38.678 18.8167C38.287 18.0667 37.794 17.3833 37.182 16.7833L36.4 16L25.503 26.6833C24.857 27.3167 24.5 28.1667 24.5 29.05V42.1167C24.5 44.25 26.285 46 28.478 46H42.265C43.455 46 44.577 45.3833 45.189 44.3833L49.711 34.1333Z" fill="white"/>
</svg>
