<svg width="66" height="66" viewBox="0 0 66 66" fill="none" xmlns="http://www.w3.org/2000/svg">
<circle cx="33" cy="33" r="33" fill="#2DC0CC"/>
<path d="M16.2461 46.7076H19.6984C20.6478 46.7076 21.4246 45.9461 21.4246 45.0153V29.7846C21.4246 28.8538 20.6478 28.0922 19.6984 28.0922H16.2461V46.7076ZM50.4757 34.6584C50.6656 34.2353 50.7692 33.7784 50.7692 33.3046V31.4769C50.7692 29.6153 49.2156 28.0922 47.3169 28.0922H37.823L39.4111 20.223C39.4974 19.8507 39.4456 19.4446 39.273 19.1061C38.876 18.3446 38.3754 17.6507 37.754 17.0415L36.9599 16.2461L25.8953 27.0938C25.2394 27.7369 24.8769 28.5999 24.8769 29.4969V42.7646C24.8769 44.9307 26.6893 46.7076 28.9161 46.7076H42.9152C44.1235 46.7076 45.2627 46.0815 45.8842 45.0661L50.4757 34.6584Z" fill="white"/>
</svg>
