<svg width="65" height="65" viewBox="0 0 65 65" fill="none" xmlns="http://www.w3.org/2000/svg">
<circle cx="32.5" cy="32.5" r="32.5" fill="#8CD29C"/>
<g clip-path="url(#clip0)">
<path d="M44.6413 20.3586C41.7019 17.4192 37.6344 15.5999 33.1459 15.5999C24.1769 15.5999 16.8999 22.8769 16.8999 31.846V45.1923C16.8999 45.9947 17.2256 46.7176 17.7499 47.242C18.2743 47.7663 18.9972 48.092 19.7996 48.092H33.1459C42.123 48.092 49.392 40.8151 49.392 31.846C49.3999 27.3654 47.5807 23.2979 44.6413 20.3586Z" fill="white"/>
<path d="M22.5161 43.1269C22.3096 43.1269 22.111 43.0474 21.9521 42.8965C21.6423 42.5867 21.6423 42.0862 21.9521 41.7763L36.3948 27.3337C36.7046 27.0238 37.2051 27.0238 37.5149 27.3337C37.8247 27.6435 37.8247 28.144 37.5149 28.4538L23.0722 42.8965C22.9213 43.0474 22.7147 43.1269 22.5161 43.1269Z" fill="#8CD29C"/>
<path d="M37.73 37.5023H28.1333C27.6964 37.5023 27.3389 37.1448 27.3389 36.7079V27.0556C27.3389 26.6187 27.6964 26.2612 28.1333 26.2612C28.5702 26.2612 28.9277 26.6187 28.9277 27.0556V35.9214H37.73C38.1669 35.9214 38.5244 36.2789 38.5244 36.7158C38.5244 37.1528 38.1669 37.5023 37.73 37.5023Z" fill="#8CD29C"/>
</g>
<defs>
<clipPath id="clip0">
<rect width="32.5" height="32.5" fill="white" transform="translate(16.8999 15.5999)"/>
</clipPath>
</defs>
</svg>
