<svg width="66" height="66" viewBox="0 0 66 66" fill="none" xmlns="http://www.w3.org/2000/svg">
<circle cx="33" cy="33" r="33" fill="#64CC80"/>
<g clip-path="url(#clip0)">
<path d="M45.3283 20.6712C42.3437 17.6866 38.2137 15.8394 33.6561 15.8394C24.5491 15.8394 17.1602 23.2283 17.1602 32.3353V45.887C17.1602 46.7017 17.4909 47.4358 18.0233 47.9682C18.5557 48.5006 19.2897 48.8313 20.1044 48.8313H33.6561C42.7713 48.8313 50.1521 41.4424 50.1521 32.3353C50.1602 27.7858 48.3129 23.6558 45.3283 20.6712Z" fill="white"/>
<path d="M22.8614 43.7907C22.6517 43.7907 22.45 43.71 22.2887 43.5567C21.9741 43.2421 21.9741 42.734 22.2887 42.4194L36.9536 27.7545C37.2681 27.4399 37.7763 27.4399 38.0909 27.7545C38.4055 28.0691 38.4055 28.5773 38.0909 28.8919L23.4261 43.5567C23.2728 43.71 23.0631 43.7907 22.8614 43.7907Z" fill="#64CC80"/>
<path d="M38.3088 38.0791H28.5645C28.1208 38.0791 27.7578 37.7161 27.7578 37.2725V27.4717C27.7578 27.028 28.1208 26.665 28.5645 26.665C29.0081 26.665 29.3711 27.028 29.3711 27.4717V36.4739H38.3088C38.7524 36.4739 39.1154 36.8369 39.1154 37.2805C39.1154 37.7242 38.7524 38.0791 38.3088 38.0791Z" fill="#64CC80"/>
</g>
<defs>
<clipPath id="clip0">
<rect width="33" height="33" fill="white" transform="translate(17.1602 15.8394)"/>
</clipPath>
</defs>
</svg>
