<svg width="128" height="128" viewBox="0 0 128 128" fill="none" xmlns="http://www.w3.org/2000/svg">
<circle cx="64" cy="64" r="64" fill="#8CD29C"/>
<g clip-path="url(#clip0)">
<path d="M87.9104 40.0905C82.1221 34.3022 74.1123 30.7197 65.2734 30.7197C47.6112 30.7197 33.2812 45.0497 33.2812 62.7119V88.994C33.2812 90.574 33.9227 91.9977 34.9552 93.0302C35.9877 94.0627 37.4113 94.7041 38.9913 94.7041H65.2734C82.9513 94.7041 97.2656 80.3741 97.2656 62.7119C97.2813 53.8886 93.6987 45.8789 87.9104 40.0905Z" fill="white"/>
<path d="M44.3398 84.9262C43.9331 84.9262 43.542 84.7698 43.2291 84.4725C42.619 83.8624 42.619 82.8768 43.2291 82.2667L71.67 53.8258C72.2802 53.2156 73.2657 53.2156 73.8759 53.8258C74.486 54.4359 74.486 55.4215 73.8759 56.0316L45.4349 84.4725C45.1377 84.7698 44.7309 84.9262 44.3398 84.9262Z" fill="#8CD29C"/>
<path d="M74.2994 73.8503H55.4013C54.5409 73.8503 53.8369 73.1463 53.8369 72.2859V53.2783C53.8369 52.4179 54.5409 51.7139 55.4013 51.7139C56.2617 51.7139 56.9657 52.4179 56.9657 53.2783V70.7371H74.2994C75.1598 70.7371 75.8638 71.4411 75.8638 72.3015C75.8638 73.1619 75.1598 73.8503 74.2994 73.8503Z" fill="#8CD29C"/>
</g>
<defs>
<clipPath id="clip0">
<rect width="64" height="64" fill="white" transform="translate(33.2812 30.7197)"/>
</clipPath>
</defs>
</svg>
