<svg width="70" height="69" viewBox="0 0 70 69" fill="none" xmlns="http://www.w3.org/2000/svg">
<path d="M58.9202 10.1054C52.6805 3.85804 44.0505 0 34.5202 0C15.4492 0 0 15.4425 0 34.5052V62.8561C0 64.5524 0.693301 66.0935 1.80051 67.2106C2.91807 68.3174 4.45989 69.0103 6.15693 69.0103H34.5202C53.5808 69.0103 69.0404 53.5678 69.0404 34.5052C69.03 24.979 65.1703 16.3527 58.9202 10.1054ZM34.5202 46.0069C31.3434 46.0069 28.4667 44.7243 26.3868 42.635C24.3069 40.556 23.0135 37.6806 23.0135 34.5052C23.0135 28.1544 28.1666 23.0034 34.5202 23.0034C37.6969 23.0034 40.5736 24.286 42.6535 26.3754C44.7334 28.4544 46.0269 31.3298 46.0269 34.5052C46.0269 40.8559 40.8737 46.0069 34.5202 46.0069Z" fill="white"/>
</svg>
