<svg width="22" height="22" viewBox="0 0 22 22" fill="none" xmlns="http://www.w3.org/2000/svg">
<path d="M18.3416 3.07555C16.3992 1.17419 13.7127 0 10.746 0C4.80926 0 0 4.69989 0 10.5016V19.1301C0 19.6464 0.215821 20.1154 0.56049 20.4554C0.908381 20.7922 1.38834 21.0031 1.91662 21.0031H10.746C16.6794 21.0031 21.4919 16.3033 21.4919 10.5016C21.4887 7.60231 20.2872 4.97692 18.3416 3.07555ZM10.746 14.0021C9.75704 14.0021 8.86155 13.6118 8.21408 12.9759C7.56662 12.3431 7.16397 11.468 7.16397 10.5016C7.16397 8.56873 8.76813 7.00105 10.746 7.00105C11.7349 7.00105 12.6304 7.3914 13.2778 8.02728C13.9253 8.66002 14.3279 9.53515 14.3279 10.5016C14.3279 12.4344 12.7238 14.0021 10.746 14.0021Z" fill="#64CC80"/>
</svg>
