<svg width="77" height="15" viewBox="0 0 77 15" fill="none" xmlns="http://www.w3.org/2000/svg">
<g clip-path="url(#clip0)">
<path d="M12.4982 2.19682C11.1747 0.838705 9.34404 0 7.32246 0C3.27711 0 0 3.35707 0 7.50112V13.6644C0 14.0331 0.147064 14.3682 0.381927 14.611C0.618985 14.8516 0.946038 15.0022 1.30601 15.0022H7.32246C11.3656 15.0022 14.6449 11.6452 14.6449 7.50112C14.6427 5.43022 13.824 3.55494 12.4982 2.19682ZM7.32246 10.0015C6.6486 10.0015 6.0384 9.72268 5.59721 9.26848C5.15601 8.81652 4.88164 8.19143 4.88164 7.50112C4.88164 6.12052 5.97474 5.00075 7.32246 5.00075C7.99632 5.00075 8.60653 5.27957 9.04772 5.73377C9.48891 6.18573 9.76328 6.81082 9.76328 7.50112C9.76328 8.88173 8.67018 10.0015 7.32246 10.0015Z" fill="white"/>
<path d="M19.0217 12.5737C18.7012 12.1713 18.541 11.807 18.541 11.4877C18.541 11.1662 18.8044 10.7412 19.3356 10.2105C19.6429 9.90698 19.97 9.75633 20.3146 9.75633C20.6592 9.75633 21.1377 10.0711 21.7545 10.7007C21.9257 10.9143 22.1737 11.1189 22.492 11.3146C22.8125 11.5102 23.1066 11.6069 23.3788 11.6069C24.5223 11.6069 25.0952 11.1279 25.0952 10.1701C25.0952 9.88 24.9394 9.63716 24.6255 9.44153C24.3116 9.24591 23.9209 9.10425 23.4534 9.01656C22.9859 8.92887 22.481 8.78721 21.9388 8.59159C21.3967 8.39596 20.8918 8.16661 20.4243 7.90129C19.9568 7.63596 19.5661 7.21773 19.2522 6.64435C18.9383 6.07097 18.7825 5.38067 18.7825 4.57345C18.7825 3.46492 19.1863 2.4958 19.9919 1.67059C20.7975 0.845372 21.8971 0.431641 23.2866 0.431641C24.0241 0.431641 24.6979 0.530576 25.3082 0.723951C25.9184 0.919573 26.3398 1.11744 26.5725 1.31981L27.0334 1.67958C27.4153 2.04609 27.6063 2.35414 27.6063 2.60598C27.6063 2.85781 27.4592 3.20409 27.1629 3.6448C26.7437 4.27439 26.3135 4.58919 25.8701 4.58919C25.6111 4.58919 25.2928 4.46327 24.9109 4.21143C24.8735 4.1867 24.8033 4.12374 24.6979 4.02256C24.5926 3.92137 24.4982 3.84042 24.4126 3.77747C24.1536 3.61332 23.8243 3.53238 23.4249 3.53238C23.0254 3.53238 22.6917 3.62906 22.4283 3.82469C22.1627 4.02031 22.031 4.29013 22.031 4.63866C22.031 4.98493 22.1869 5.266 22.5008 5.47961C22.8146 5.69322 23.2054 5.83938 23.6729 5.91358C24.1404 5.99003 24.6519 6.10695 25.205 6.26435C25.7581 6.42175 26.2696 6.61512 26.7371 6.83998C27.2046 7.06708 27.5953 7.46057 27.9092 8.02271C28.2231 8.58484 28.3789 9.27289 28.3789 10.0936C28.3789 10.9143 28.2187 11.6339 27.8982 12.259C27.5778 12.8818 27.1607 13.3652 26.6427 13.7048C25.6462 14.3726 24.5816 14.7076 23.449 14.7076C22.8695 14.7076 22.323 14.6357 21.8072 14.4895C21.2913 14.3456 20.8721 14.1657 20.5516 13.9499C19.8997 13.5474 19.4432 13.1561 19.1863 12.7784L19.0217 12.5737Z" fill="white"/>
<path d="M38.9566 8.34883C38.9566 9.12458 38.7679 9.69796 38.3947 10.069C38.0194 10.44 37.6045 10.6266 37.148 10.6266H32.7734C32.7734 10.9796 32.9753 11.2764 33.3814 11.5148C33.7874 11.7554 34.1935 11.8745 34.5996 11.8745C35.313 11.8745 35.8727 11.7981 36.2787 11.6474L36.4829 11.571C36.7792 11.4316 37.025 11.3619 37.2204 11.3619C37.6133 11.3619 37.9513 11.6452 38.2345 12.2118C38.3947 12.5514 38.4737 12.8414 38.4737 13.082C38.4737 14.204 37.1633 14.7639 34.5425 14.7639C33.6316 14.7639 32.8238 14.6043 32.1149 14.2827C31.4059 13.9612 30.8571 13.5362 30.462 13.0056C29.6872 11.9847 29.2987 10.8447 29.2987 9.58328C29.2987 7.99581 29.7992 6.72539 30.8023 5.77426C31.8054 4.82313 33.0565 4.34644 34.5579 4.34644C36.2678 4.34644 37.5233 4.96478 38.3223 6.19923C38.7481 6.85805 38.9566 7.57309 38.9566 8.34883ZM35.0627 8.90647C35.5303 8.90647 35.7651 8.7041 35.7651 8.30161C35.7651 8.01155 35.6576 7.7777 35.4425 7.60232C35.2274 7.42693 34.9201 7.33699 34.5206 7.33699C34.1211 7.33699 33.7238 7.50338 33.3309 7.83842C32.938 8.17345 32.7404 8.52872 32.7404 8.90647H35.0627Z" fill="white"/>
<path d="M49.5343 8.34883C49.5343 9.12458 49.3455 9.69796 48.9702 10.069C48.5948 10.44 48.18 10.6266 47.7234 10.6266H43.3488C43.3488 10.9796 43.5529 11.2764 43.959 11.5148C44.3651 11.7554 44.7712 11.8745 45.1772 11.8745C45.8906 11.8745 46.4503 11.7981 46.8564 11.6474L47.0583 11.571C47.3546 11.4316 47.6005 11.3619 47.7958 11.3619C48.1887 11.3619 48.529 11.6452 48.8099 12.2118C48.9702 12.5514 49.0492 12.8414 49.0492 13.082C49.0492 14.204 47.7388 14.7639 45.118 14.7639C44.207 14.7639 43.3993 14.6043 42.6903 14.2827C41.9835 13.9612 41.4326 13.5362 41.0375 13.0056C40.2627 11.9847 39.8741 10.8447 39.8741 9.58328C39.8741 7.99581 40.3746 6.72539 41.3777 5.77426C42.3808 4.82313 43.632 4.34644 45.1333 4.34644C46.8432 4.34644 48.0987 4.96478 48.8999 6.19923C49.3235 6.85805 49.5343 7.57309 49.5343 8.34883ZM45.6382 8.90647C46.1057 8.90647 46.3406 8.7041 46.3406 8.30161C46.3406 8.01155 46.233 7.7777 46.0179 7.60232C45.8028 7.42693 45.4955 7.33699 45.0938 7.33699C44.6943 7.33699 44.297 7.50338 43.9041 7.83842C43.5112 8.17345 43.3137 8.52872 43.3137 8.90647H45.6382Z" fill="white"/>
<path d="M56.1784 11.8948H51.7862C51.097 11.8948 50.6843 11.6812 50.5504 11.2517C50.489 11.0246 50.4583 10.7346 50.4583 10.3815C50.4583 10.0285 50.4956 9.7452 50.568 9.53159C50.6426 9.31798 50.759 9.16508 50.9192 9.07738C51.1409 8.96496 51.4372 8.90649 51.806 8.90649H56.1981C56.8874 8.90649 57.2934 9.11561 57.4163 9.53159C57.491 9.75869 57.5283 10.0488 57.5283 10.4018C57.5283 10.7548 57.4932 11.0426 57.4273 11.263C57.3593 11.4833 57.2517 11.6385 57.1047 11.7262C56.8808 11.8386 56.5713 11.8948 56.1784 11.8948Z" fill="white"/>
<path d="M65.0373 5.61668C65.112 4.91064 65.5971 4.55762 66.4948 4.55762C66.9755 4.55762 67.3311 4.59584 67.566 4.67004C67.8008 4.74425 67.9632 4.87691 68.0554 5.06804C68.1476 5.25691 68.2025 5.4233 68.2223 5.56946C68.2398 5.71561 68.2486 5.93147 68.2486 6.22154V12.839C68.2486 13.129 68.2398 13.3472 68.2223 13.4911C68.2047 13.6372 68.152 13.8036 68.0664 13.9925C67.893 14.3208 67.4716 14.4849 66.8021 14.4849C66.1304 14.4849 65.6827 14.3995 65.4544 14.2286C65.2261 14.0577 65.0944 13.8104 65.0571 13.4821C64.6027 14.1499 63.8411 14.4849 62.7787 14.4849C61.7141 14.4849 60.7264 13.988 59.8155 12.9919C58.9046 11.9958 58.4502 10.84 58.4502 9.52239C58.4502 8.20475 58.9089 7.05125 59.8264 6.06189C60.7439 5.07253 61.7493 4.57785 62.8445 4.57785C63.2638 4.57785 63.6435 4.6543 63.9881 4.80496C64.3327 4.95561 64.572 5.09727 64.7081 5.22993C64.8398 5.36035 64.9517 5.49076 65.0373 5.61668ZM61.679 9.54937C61.679 9.96535 61.8392 10.3409 62.1597 10.6736C62.4802 11.0087 62.8665 11.1751 63.3231 11.1751C63.7774 11.1751 64.1571 11.0042 64.4579 10.6646C64.7586 10.3251 64.91 9.94961 64.91 9.54038C64.91 9.13114 64.7652 8.74889 64.4776 8.39587C64.1879 8.04285 63.8016 7.86747 63.3143 7.86747C62.827 7.86747 62.4341 8.0451 62.1334 8.39587C61.8283 8.74889 61.679 9.13339 61.679 9.54937Z" fill="white"/>
<path d="M75.3756 7.90363L74.175 7.82718V10.4355C74.175 10.775 74.2276 11.0223 74.3308 11.173C74.434 11.3237 74.6315 11.4001 74.9212 11.4001C75.211 11.4001 75.4327 11.4091 75.5863 11.4293C75.74 11.4496 75.9024 11.508 76.0758 11.6092C76.359 11.7734 76.4994 12.1961 76.4994 12.8751C76.4994 13.6689 76.326 14.1546 75.9836 14.3322C75.7992 14.4199 75.6346 14.4739 75.4941 14.4918C75.3515 14.5098 75.1451 14.5211 74.8752 14.5211C73.5955 14.5211 72.6231 14.2243 71.958 13.6329C71.2929 13.0415 70.9615 12.0387 70.9615 10.6266V7.82942C70.7266 7.86765 70.4742 7.88564 70.2042 7.88564C69.9342 7.88564 69.7082 7.77771 69.5304 7.5641C69.3526 7.35049 69.2626 6.98397 69.2626 6.46681C69.2626 5.94965 69.2933 5.57414 69.3548 5.34254C69.4162 5.10869 69.5018 4.9423 69.6138 4.84112C69.8091 4.67697 70.0572 4.59603 70.3513 4.59603L70.9615 4.67248V2.72524C70.9615 2.43518 70.9703 2.22157 70.9878 2.08216C71.0054 1.94275 71.0647 1.7921 71.1634 1.62795C71.3237 1.31316 71.7978 1.15576 72.5858 1.15576C73.4221 1.15576 73.9203 1.38961 74.0806 1.85506C74.142 2.05743 74.1728 2.37897 74.1728 2.81968V4.67248C74.7149 4.62301 75.1232 4.59603 75.3998 4.59603C75.6763 4.59603 75.8849 4.60502 76.0275 4.62526C76.1702 4.64549 76.3326 4.70396 76.517 4.80514C76.8375 4.96928 76.9977 5.45497 76.9977 6.26219C76.9977 7.05593 76.8309 7.54161 76.4994 7.71925C76.3151 7.80694 76.1526 7.8609 76.01 7.87889C75.8695 7.89463 75.6566 7.90363 75.3756 7.90363Z" fill="white"/>
</g>
<defs>
<clipPath id="clip0">
<rect width="77" height="15" fill="white"/>
</clipPath>
</defs>
</svg>
