<svg width="36" height="36" viewBox="0 0 36 36" fill="none" xmlns="http://www.w3.org/2000/svg">
<path d="M25.729 22.6415H24.1029L23.5266 22.0858C25.5437 19.7393 26.7581 16.693 26.7581 13.3791C26.7581 5.98971 20.7684 0 13.3791 0C5.98971 0 0 5.98971 0 13.3791C0 20.7684 5.98971 26.7581 13.3791 26.7581C16.693 26.7581 19.7393 25.5437 22.0858 23.5266L22.6415 24.1029V25.729L32.9331 36L36 32.9331L25.729 22.6415ZM13.3791 22.6415C8.25386 22.6415 4.11664 18.5043 4.11664 13.3791C4.11664 8.25386 8.25386 4.11664 13.3791 4.11664C18.5043 4.11664 22.6415 8.25386 22.6415 13.3791C22.6415 18.5043 18.5043 22.6415 13.3791 22.6415Z" fill="#8CD29C"/>
</svg>
