<svg width="33" height="36" viewBox="0 0 33 36" fill="none" xmlns="http://www.w3.org/2000/svg">
<path d="M27.1084 25.4458C25.7349 25.4458 24.506 25.988 23.5663 26.8374L10.6807 19.3373C10.7711 18.9217 10.8434 18.506 10.8434 18.0723C10.8434 17.6386 10.7711 17.2229 10.6807 16.8072L23.4217 9.37952C24.3976 10.2831 25.6807 10.8434 27.1084 10.8434C30.1084 10.8434 32.5301 8.42169 32.5301 5.42169C32.5301 2.42169 30.1084 0 27.1084 0C24.1084 0 21.6868 2.42169 21.6868 5.42169C21.6868 5.85542 21.759 6.27108 21.8494 6.68675L9.10843 14.1145C8.13253 13.2108 6.8494 12.6506 5.42169 12.6506C2.42169 12.6506 0 15.0723 0 18.0723C0 21.0723 2.42169 23.494 5.42169 23.494C6.8494 23.494 8.13253 22.9337 9.10843 22.0301L21.9759 29.5482C21.8855 29.9277 21.8313 30.3253 21.8313 30.7229C21.8313 33.6325 24.1988 36 27.1084 36C30.0181 36 32.3855 33.6325 32.3855 30.7229C32.3855 27.8133 30.0181 25.4458 27.1084 25.4458Z" fill="white"/>
</svg>
