<svg width="100" height="100" viewBox="0 0 100 100" fill="none" xmlns="http://www.w3.org/2000/svg">
<circle cx="50" cy="50" r="50" fill="#8CD29C"/>
<path d="M29.75 50C29.75 45.725 33.225 42.25 37.5 42.25H47.5V37.5H37.5C30.6 37.5 25 43.1 25 50C25 56.9 30.6 62.5 37.5 62.5H47.5V57.75H37.5C33.225 57.75 29.75 54.275 29.75 50ZM40 52.5H60V47.5H40V52.5ZM62.5 37.5H52.5V42.25H62.5C66.775 42.25 70.25 45.725 70.25 50C70.25 54.275 66.775 57.75 62.5 57.75H52.5V62.5H62.5C69.4 62.5 75 56.9 75 50C75 43.1 69.4 37.5 62.5 37.5Z" fill="white" fill-opacity="0.9"/>
</svg>
