<svg width="91" height="107" viewBox="0 0 91 107" fill="none" xmlns="http://www.w3.org/2000/svg">
<path d="M89.6685 102.811C89.6487 102.735 89.6091 102.678 89.5892 102.602C86.9136 94.7738 79.3427 89.5108 70.7412 89.5108C67.6296 89.5108 64.6765 90.2138 62.0208 91.4488C61.7433 91.2018 61.4658 90.9548 61.1685 90.7078C58.5921 88.5608 54.6481 85.5588 47.196 85.1028V80.7138C48.7221 80.0108 50.8428 79.8778 53.2607 79.7448C58.0966 79.4598 64.1216 79.1178 69.2349 73.7598C75.8149 66.8628 77.2221 54.3988 75.7555 51.2448C75.26 50.1618 74.4672 49.9908 74.0312 49.9908C73.615 49.9908 73.1988 50.1428 72.8222 50.4278C71.4943 51.4538 69.116 51.5678 66.3612 51.7198C61.5451 51.9668 55.5399 52.2708 50.5851 57.4578C49.2374 58.8828 48.1077 60.5168 47.1762 62.2268V45.3928C48.405 44.1578 50.2482 43.0938 52.3094 41.8968C57.0858 39.1228 63.0514 35.6838 65.2711 27.6088C67.8476 18.2038 63.4676 6.1578 60.3956 2.3388C59.583 1.3128 58.7704 0.799805 57.9579 0.799805C57.6011 0.799805 56.7291 0.913805 56.2534 1.9778C55.4408 3.7638 53.0427 5.1318 50.268 6.7088C45.4916 9.44481 39.526 12.8458 37.3856 20.6358C34.6901 30.4588 39.3278 41.9348 42.2809 45.6208C42.3602 45.7158 42.4394 45.8108 42.5187 45.9058V55.0068C41.6467 51.8718 39.9819 48.6608 36.4342 45.8868C31.0434 41.6498 22.8779 40.1488 17.5466 40.1488C12.3738 40.1488 11.7594 41.4408 11.5612 41.8778C11.4225 42.1628 11.1846 42.9418 11.9378 43.7398C13.0674 44.9558 13.3251 47.2168 13.6422 49.8388C14.1773 54.4368 14.8314 60.1748 20.4996 64.6208C25.7913 68.7628 33.501 70.2448 38.9513 70.2448C40.3782 70.2448 41.5674 70.1498 42.5385 69.9598V85.1408C38.1189 85.4638 32.9263 87.5918 29.1408 90.7078C28.8435 90.9548 28.566 91.2018 28.2886 91.4488C25.6328 90.1948 22.6797 89.5108 19.5681 89.5108C15.4854 89.5108 11.5612 90.6888 8.23157 92.9308C4.98123 95.1158 2.50384 98.1368 1.07686 101.671C0.541739 102.982 0.581375 104.141 1.17595 104.977C1.75071 105.775 2.74167 106.193 4.12901 106.193H20.7176H39.308H51.041H69.6313H87.4289C88.4992 106.193 89.2523 105.889 89.6883 105.3C90.2829 104.426 89.8865 103.381 89.6685 102.811ZM41.171 65.9318C40.5963 65.4948 39.8233 64.8488 38.8918 64.0698C38.436 63.6708 37.9405 63.2338 37.445 62.7588C37.3856 62.7018 37.3261 62.6448 37.2468 62.5878L37.1477 62.4928L37.1279 62.4738C37.1279 62.4738 37.1676 62.5118 37.1477 62.4928L37.1279 62.4738L37.0883 62.4358C36.9694 62.3408 36.8504 62.2268 36.7315 62.1318C36.4739 61.9418 36.2162 61.7328 35.9388 61.5428C34.8487 60.7638 33.5605 60.0608 32.1929 59.3768C30.8254 58.6738 29.3588 57.9898 28.0111 57.1918C27.3372 56.7928 26.703 56.3558 26.1085 55.8998C25.5139 55.4438 24.9986 54.9308 24.5824 54.4178C24.1662 53.9048 23.8293 53.3918 23.6112 52.8978C23.5518 52.7838 23.5121 52.6508 23.4725 52.5368C23.4329 52.4228 23.3932 52.3088 23.3536 52.1948C23.2941 51.9668 23.2545 51.7768 23.2149 51.5868C23.195 51.3968 23.1752 51.2258 23.1554 51.0928C23.1356 50.9598 23.1554 50.8458 23.1554 50.7508C23.1554 50.5608 23.1752 50.4658 23.1752 50.4658C23.1752 50.4658 23.2347 50.5418 23.3536 50.7128C23.413 50.7888 23.4725 50.9028 23.5518 50.9978C23.6311 51.0928 23.7302 51.2258 23.8293 51.3588C23.9482 51.4918 24.0671 51.6248 24.2058 51.7768C24.3644 51.9098 24.4833 52.0808 24.6815 52.2138C25.0184 52.5178 25.4346 52.8028 25.8904 53.0878C26.3661 53.3728 26.8814 53.6388 27.476 53.9048C28.0507 54.1708 28.7048 54.4368 29.3786 54.7028C30.7263 55.2348 32.2326 55.8238 33.7388 56.5838C34.492 56.9638 35.2253 57.3818 35.9388 57.8568C36.6523 58.3318 37.3063 58.8638 37.9009 59.4528C38.1981 59.7378 38.4756 60.0418 38.7333 60.3458C38.8522 60.4978 38.9711 60.6688 39.09 60.8208L39.1297 60.8778L39.1495 60.8968C39.1297 60.8778 39.1891 60.9348 39.1693 60.9348L39.1891 60.9538L39.2684 61.0678C39.308 61.1438 39.3675 61.2198 39.4071 61.2768C39.7639 61.8468 40.1008 62.3978 40.3981 62.9298C40.5368 63.1958 40.6954 63.4428 40.8143 63.6708C40.9332 63.9178 41.0521 64.1458 41.171 64.3738C41.389 64.8108 41.5674 65.2098 41.7061 65.5328C41.9836 66.1788 42.1223 66.5778 42.1223 66.5778C42.1223 66.5778 41.7458 66.3688 41.171 65.9318ZM47.6321 77.1798C48.1474 76.6668 48.9005 76.0208 49.8122 75.2228C50.268 74.8238 50.7833 74.4248 51.3184 73.9878C51.3779 73.9308 51.4572 73.8738 51.5166 73.8358L51.6157 73.7598L51.6355 73.7408C51.6355 73.7408 51.5761 73.7788 51.6157 73.7598L51.6355 73.7408L51.6752 73.7028C51.7941 73.6078 51.913 73.4938 52.0319 73.3988C52.2698 73.1708 52.5076 72.9618 52.7256 72.7148C53.6571 71.7648 54.5291 70.6058 55.4012 69.3708C56.2732 68.1358 57.1453 66.8248 58.1362 65.6278C58.6317 65.0388 59.147 64.4688 59.6821 63.9558C60.2172 63.4428 60.792 63.0058 61.3866 62.6638C61.9613 62.3218 62.5361 62.0558 63.0712 61.9228C63.2099 61.8848 63.3288 61.8468 63.4478 61.8278C63.5667 61.8088 63.6856 61.7708 63.8045 61.7518C64.0423 61.7328 64.2603 61.6948 64.4387 61.6948C64.6369 61.6948 64.8153 61.6948 64.954 61.6948C65.0928 61.6948 65.2117 61.7138 65.3108 61.7328C65.5089 61.7708 65.608 61.7708 65.608 61.7708C65.608 61.7708 65.509 61.8088 65.3306 61.9038C65.2513 61.9418 65.1324 61.9988 65.0135 62.0558C64.8946 62.1128 64.7558 62.1888 64.6171 62.2838C64.4784 62.3788 64.3198 62.4738 64.1414 62.5878C63.9829 62.7208 63.8045 62.8348 63.6261 62.9868C63.2694 63.2718 62.9325 63.6328 62.5757 64.0508C62.2388 64.4688 61.882 64.9438 61.5451 65.4568C61.2082 65.9888 60.8713 66.5588 60.5145 67.1858C59.801 68.4208 59.0281 69.7888 58.0966 71.1378C57.6209 71.8028 57.1056 72.4678 56.5309 73.0948C55.9561 73.7218 55.3219 74.2918 54.6679 74.7858C54.3309 75.0328 53.994 75.2608 53.6373 75.4698C53.4589 75.5648 53.2805 75.6598 53.1021 75.7548L53.0427 75.7928H53.0229C53.0427 75.7738 52.9832 75.8118 52.9832 75.8118L52.9436 75.8308L52.8247 75.8878C52.7454 75.9258 52.6661 75.9638 52.5869 76.0018C51.9526 76.2868 51.3382 76.5338 50.7635 76.7618C50.486 76.8758 50.2086 76.9898 49.9311 77.0848C49.6734 77.1798 49.4158 77.2748 49.178 77.3508C48.7023 77.5028 48.2663 77.6358 47.9095 77.7308C47.196 77.9208 46.7798 78.0158 46.7798 78.0158C46.7798 78.0158 47.1366 77.6738 47.6321 77.1798ZM45.234 42.3528C45.3727 41.9728 45.5312 41.5168 45.7492 41.0038C45.9673 40.4908 46.2051 39.9018 46.4627 39.2748C46.7402 38.6478 47.0375 37.9638 47.3546 37.2608C47.3942 37.1658 47.4339 37.0898 47.4735 36.9948L47.533 36.8618L47.5528 36.8238C47.5528 36.8238 47.533 36.8808 47.533 36.8428V36.8238L47.5528 36.7668C47.6123 36.5958 47.6915 36.4248 47.751 36.2538C47.8699 35.8928 48.0086 35.5508 48.1077 35.1708C48.5437 33.6888 48.8212 32.0358 49.0194 30.3258C49.2176 28.5968 49.3762 26.8108 49.6933 25.0818C49.8518 24.2268 50.05 23.3718 50.3077 22.5738C50.5653 21.7758 50.8824 21.0348 51.2788 20.3888C51.6554 19.7428 52.0716 19.1728 52.5274 18.7548C52.6265 18.6408 52.7454 18.5458 52.8643 18.4508C52.9634 18.3558 53.0823 18.2608 53.1814 18.1848C53.3994 18.0328 53.5976 17.8998 53.776 17.7858C53.9742 17.6718 54.1328 17.5768 54.2913 17.5008C54.43 17.4248 54.5688 17.3868 54.6679 17.3488C54.8859 17.2728 55.0048 17.2348 55.0048 17.2348C55.0048 17.2348 54.9255 17.3298 54.7868 17.5008C54.7273 17.5958 54.6282 17.6908 54.5291 17.8238C54.4499 17.9568 54.3309 18.0898 54.2318 18.2608C54.1327 18.4318 54.0138 18.6028 53.8949 18.8118C53.7958 19.0208 53.6571 19.2298 53.5778 19.4768C53.5184 19.5908 53.4787 19.7238 53.4193 19.8378C53.3796 19.9708 53.3202 20.1038 53.2805 20.2368C53.2211 20.3698 53.2013 20.5218 53.1616 20.6548C53.122 20.7878 53.0823 20.9398 53.0427 21.0918C52.904 21.6998 52.8049 22.3648 52.7256 23.0868C52.6463 23.8088 52.6265 24.5878 52.5869 25.4048C52.5274 27.0388 52.5076 28.8438 52.2896 30.7058C52.1905 31.6368 52.0319 32.5678 51.7941 33.4988C51.5563 34.4298 51.259 35.3228 50.8626 36.1778C50.6644 36.5958 50.4464 37.0138 50.2284 37.3938C50.1095 37.5838 49.9905 37.7738 49.8716 37.9638L49.832 38.0398L49.8122 38.0588L49.7924 38.0968L49.7725 38.1348L49.6734 38.2488C49.614 38.3248 49.5545 38.4008 49.4951 38.4768C49.0194 39.1038 48.5437 39.6928 48.1077 40.2248C47.8897 40.4908 47.6717 40.7568 47.4537 40.9848C47.2357 41.2318 47.0375 41.4408 46.8393 41.6498C46.4429 42.0678 46.0862 42.4288 45.7889 42.7138C45.1943 43.3028 44.8177 43.6068 44.8177 43.6068C44.8177 43.6068 44.9763 43.1128 45.234 42.3528Z" fill="#8CD29C"/>
</svg>
