<svg width="47" height="56" viewBox="0 0 47 56" fill="none" xmlns="http://www.w3.org/2000/svg">
<path d="M46.8249 53.69C46.8145 53.65 46.7936 53.62 46.7832 53.58C45.375 49.46 41.3903 46.69 36.8632 46.69C35.2255 46.69 33.6712 47.06 32.2735 47.71C32.1274 47.58 31.9814 47.45 31.8249 47.32C30.4689 46.19 28.3931 44.61 24.471 44.37V42.06C25.2742 41.69 26.3903 41.62 27.6629 41.55C30.2081 41.4 33.3792 41.22 36.0704 38.4C39.5335 34.77 40.2742 28.21 39.5023 26.55C39.2415 25.98 38.8242 25.89 38.5947 25.89C38.3757 25.89 38.1566 25.97 37.9584 26.12C37.2596 26.66 36.0078 26.72 34.5579 26.8C32.0231 26.93 28.8625 27.09 26.2547 29.82C25.5454 30.57 24.9508 31.43 24.4606 32.33V23.47C25.1073 22.82 26.0774 22.26 27.1622 21.63C29.6761 20.17 32.8159 18.36 33.9842 14.11C35.3402 9.16 33.0349 2.82 31.4181 0.81C30.9904 0.27 30.5628 0 30.1351 0C29.9473 0 29.4884 0.06 29.238 0.62C28.8103 1.56 27.5482 2.28 26.0878 3.11C23.5739 4.55 20.4341 6.34 19.3076 10.44C17.8889 15.61 20.3298 21.65 21.8841 23.59C21.9258 23.64 21.9675 23.69 22.0092 23.74V28.53C21.5503 26.88 20.6741 25.19 18.8069 23.73C15.9696 21.5 11.672 20.71 8.866 20.71C6.14347 20.71 5.82011 21.39 5.7158 21.62C5.64278 21.77 5.51761 22.18 5.91399 22.6C6.50857 23.24 6.64417 24.43 6.81107 25.81C7.09271 28.23 7.43694 31.25 10.4202 33.59C13.2054 35.77 17.2631 36.55 20.1316 36.55C20.8827 36.55 21.5085 36.5 22.0197 36.4V44.39C19.6935 44.56 16.9606 45.68 14.9682 47.32C14.8118 47.45 14.6657 47.58 14.5197 47.71C13.1219 47.05 11.5677 46.69 9.92998 46.69C7.78116 46.69 5.7158 47.31 3.96337 48.49C2.25266 49.64 0.94877 51.23 0.197728 53.09C-0.0839123 53.78 -0.0630508 54.39 0.249883 54.83C0.552386 55.25 1.07394 55.47 1.80412 55.47H10.535H20.3194H26.4946H36.279H45.6462C46.2095 55.47 46.6059 55.31 46.8353 55C47.1483 54.54 46.9397 53.99 46.8249 53.69ZM21.2999 34.28C20.9974 34.05 20.5906 33.71 20.1003 33.3C19.8604 33.09 19.5996 32.86 19.3389 32.61C19.3076 32.58 19.2763 32.55 19.2346 32.52L19.1824 32.47L19.172 32.46C19.172 32.46 19.1928 32.48 19.1824 32.47L19.172 32.46L19.1511 32.44C19.0885 32.39 19.0259 32.33 18.9633 32.28C18.8277 32.18 18.6921 32.07 18.5461 31.97C17.9724 31.56 17.2944 31.19 16.5746 30.83C15.8549 30.46 15.083 30.1 14.3736 29.68C14.019 29.47 13.6852 29.24 13.3723 29C13.0593 28.76 12.7881 28.49 12.5691 28.22C12.35 27.95 12.1727 27.68 12.0579 27.42C12.0266 27.36 12.0058 27.29 11.9849 27.23C11.9641 27.17 11.9432 27.11 11.9223 27.05C11.891 26.93 11.8702 26.83 11.8493 26.73C11.8389 26.63 11.8284 26.54 11.818 26.47C11.8076 26.4 11.818 26.34 11.818 26.29C11.818 26.19 11.8284 26.14 11.8284 26.14C11.8284 26.14 11.8597 26.18 11.9223 26.27C11.9536 26.31 11.9849 26.37 12.0266 26.42C12.0684 26.47 12.1205 26.54 12.1727 26.61C12.2353 26.68 12.2978 26.75 12.3709 26.83C12.4543 26.9 12.5169 26.99 12.6212 27.06C12.7985 27.22 13.0176 27.37 13.2575 27.52C13.5079 27.67 13.7791 27.81 14.092 27.95C14.3945 28.09 14.7387 28.23 15.0934 28.37C15.8027 28.65 16.5955 28.96 17.3882 29.36C17.7846 29.56 18.1706 29.78 18.5461 30.03C18.9216 30.28 19.2658 30.56 19.5788 30.87C19.7352 31.02 19.8813 31.18 20.0169 31.34C20.0795 31.42 20.1421 31.51 20.2046 31.59L20.2255 31.62L20.2359 31.63C20.2255 31.62 20.2568 31.65 20.2464 31.65L20.2568 31.66L20.2985 31.72C20.3194 31.76 20.3507 31.8 20.3715 31.83C20.5593 32.13 20.7366 32.42 20.8931 32.7C20.9661 32.84 21.0496 32.97 21.1122 33.09C21.1747 33.22 21.2373 33.34 21.2999 33.46C21.4147 33.69 21.5085 33.9 21.5816 34.07C21.7276 34.41 21.8006 34.62 21.8006 34.62C21.8006 34.62 21.6024 34.51 21.2999 34.28ZM24.7005 40.2C24.9717 39.93 25.3681 39.59 25.8479 39.17C26.0878 38.96 26.359 38.75 26.6407 38.52C26.672 38.49 26.7137 38.46 26.745 38.44L26.7971 38.4L26.8076 38.39C26.8076 38.39 26.7763 38.41 26.7971 38.4L26.8076 38.39L26.8284 38.37C26.891 38.32 26.9536 38.26 27.0162 38.21C27.1414 38.09 27.2665 37.98 27.3813 37.85C27.8715 37.35 28.3305 36.74 28.7895 36.09C29.2484 35.44 29.7074 34.75 30.229 34.12C30.4897 33.81 30.761 33.51 31.0426 33.24C31.3242 32.97 31.6267 32.74 31.9397 32.56C32.2422 32.38 32.5447 32.24 32.8263 32.17C32.8993 32.15 32.9619 32.13 33.0245 32.12C33.0871 32.11 33.1497 32.09 33.2123 32.08C33.3375 32.07 33.4522 32.05 33.5461 32.05C33.6504 32.05 33.7443 32.05 33.8173 32.05C33.8903 32.05 33.9529 32.06 34.005 32.07C34.1094 32.09 34.1615 32.09 34.1615 32.09C34.1615 32.09 34.1094 32.11 34.0155 32.16C33.9738 32.18 33.9112 32.21 33.8486 32.24C33.786 32.27 33.713 32.31 33.64 32.36C33.5669 32.41 33.4835 32.46 33.3896 32.52C33.3062 32.59 33.2123 32.65 33.1184 32.73C32.9306 32.88 32.7533 33.07 32.5655 33.29C32.3882 33.51 32.2005 33.76 32.0231 34.03C31.8458 34.31 31.6685 34.61 31.4807 34.94C31.1052 35.59 30.6984 36.31 30.2081 37.02C29.9578 37.37 29.6866 37.72 29.3841 38.05C29.0815 38.38 28.7477 38.68 28.4035 38.94C28.2262 39.07 28.0489 39.19 27.8611 39.3C27.7672 39.35 27.6733 39.4 27.5795 39.45L27.5482 39.47H27.5377C27.5482 39.46 27.5169 39.48 27.5169 39.48L27.496 39.49L27.4334 39.52C27.3917 39.54 27.35 39.56 27.3083 39.58C26.9745 39.73 26.6511 39.86 26.3486 39.98C26.2025 40.04 26.0565 40.1 25.9105 40.15C25.7749 40.2 25.6393 40.25 25.5141 40.29C25.2638 40.37 25.0343 40.44 24.8465 40.49C24.471 40.59 24.2519 40.64 24.2519 40.64C24.2519 40.64 24.4397 40.46 24.7005 40.2ZM23.4383 21.87C23.5113 21.67 23.5948 21.43 23.7095 21.16C23.8243 20.89 23.9494 20.58 24.085 20.25C24.2311 19.92 24.3875 19.56 24.5544 19.19C24.5753 19.14 24.5962 19.1 24.617 19.05L24.6483 18.98L24.6587 18.96C24.6587 18.96 24.6483 18.99 24.6483 18.97V18.96L24.6587 18.93C24.69 18.84 24.7318 18.75 24.7631 18.66C24.8256 18.47 24.8987 18.29 24.9508 18.09C25.1803 17.31 25.3263 16.44 25.4306 15.54C25.535 14.63 25.6184 13.69 25.7853 12.78C25.8688 12.33 25.9731 11.88 26.1087 11.46C26.2443 11.04 26.4112 10.65 26.6198 10.31C26.818 9.97 27.037 9.67 27.277 9.45C27.3291 9.39 27.3917 9.34 27.4543 9.29C27.5064 9.24 27.569 9.19 27.6212 9.15C27.7359 9.07 27.8402 9 27.9341 8.94C28.0384 8.88 28.1219 8.83 28.2053 8.79C28.2784 8.75 28.3514 8.73 28.4035 8.71C28.5183 8.67 28.5809 8.65 28.5809 8.65C28.5809 8.65 28.5391 8.7 28.4661 8.79C28.4348 8.84 28.3827 8.89 28.3305 8.96C28.2888 9.03 28.2262 9.1 28.174 9.19C28.1219 9.28 28.0593 9.37 27.9967 9.48C27.9445 9.59 27.8715 9.7 27.8298 9.83C27.7985 9.89 27.7777 9.96 27.7464 10.02C27.7255 10.09 27.6942 10.16 27.6733 10.23C27.642 10.3 27.6316 10.38 27.6108 10.45C27.5899 10.52 27.569 10.6 27.5482 10.68C27.4752 11 27.423 11.35 27.3813 11.73C27.3395 12.11 27.3291 12.52 27.3083 12.95C27.277 13.81 27.2665 14.76 27.1518 15.74C27.0996 16.23 27.0162 16.72 26.891 17.21C26.7658 17.7 26.6094 18.17 26.4007 18.62C26.2964 18.84 26.1817 19.06 26.0669 19.26C26.0044 19.36 25.9418 19.46 25.8792 19.56L25.8583 19.6L25.8479 19.61L25.8375 19.63L25.827 19.65L25.7749 19.71C25.7436 19.75 25.7123 19.79 25.681 19.83C25.4306 20.16 25.1803 20.47 24.9508 20.75C24.8361 20.89 24.7213 21.03 24.6066 21.15C24.4918 21.28 24.3875 21.39 24.2832 21.5C24.0746 21.72 23.8868 21.91 23.7304 22.06C23.4174 22.37 23.2192 22.53 23.2192 22.53C23.2192 22.53 23.3027 22.27 23.4383 21.87Z" fill="#8CD29C"/>
</svg>
