<svg width="104" height="107" viewBox="0 0 104 107" fill="none" xmlns="http://www.w3.org/2000/svg">
<path d="M53.9344 53.3858C41.5388 29.4762 51.2744 8.42934 56.754 0C28.2388 1.00728 5.41602 24.2807 5.41602 52.9617C5.41602 53.7039 5.52242 54.4461 5.52242 55.1883C8.82082 53.7569 12.3852 52.9617 16.1624 52.9617C24.9936 52.9617 33.08 57.3619 37.9744 64.3599C46.8588 66.9046 53.4024 75.0689 53.4024 84.7705C53.4024 92.8288 48.774 99.7737 42.124 103.379C47.3376 105.075 52.9236 106.029 58.6692 106.029C77.2892 106.029 93.6748 96.4868 103.198 82.0668C90.6424 83.2861 66.064 76.9244 53.9344 53.3858Z" fill="#8CD29C"/>
<path d="M32.1212 74.1679H31.1636C28.9292 68.0182 23.0772 63.5649 16.1612 63.5649C7.32997 63.5649 0.201172 70.6689 0.201172 79.4694C0.201172 88.2698 7.32997 95.3738 16.1612 95.3738C19.4596 95.3738 29.408 95.3738 32.1212 95.3738C37.9732 95.3738 42.7612 90.6025 42.7612 84.7708C42.7612 78.9392 37.9732 74.1679 32.1212 74.1679Z" fill="#8CD29C"/>
</svg>
