<svg width="55" height="56" viewBox="0 0 55 56" fill="none" xmlns="http://www.w3.org/2000/svg">
<path d="M28.2811 28.196C21.7571 15.568 26.8811 4.452 29.7651 0C14.7571 0.532 2.74512 12.824 2.74512 27.972C2.74512 28.364 2.80112 28.756 2.80112 29.148C4.53712 28.392 6.41312 27.972 8.40112 27.972C13.0491 27.972 17.3051 30.296 19.8811 33.992C24.5571 35.336 28.0011 39.648 28.0011 44.772C28.0011 49.028 25.5651 52.696 22.0651 54.6C24.8091 55.496 27.7491 56 30.7731 56C40.5731 56 49.1971 50.96 54.2091 43.344C47.6011 43.988 34.6651 40.628 28.2811 28.196Z" fill="#8CD29C"/>
<path d="M16.8 39.1719H16.296C15.12 35.9239 12.04 33.5719 8.4 33.5719C3.752 33.5719 0 37.3239 0 41.9719C0 46.6199 3.752 50.3719 8.4 50.3719C10.136 50.3719 15.372 50.3719 16.8 50.3719C19.88 50.3719 22.4 47.8519 22.4 44.7719C22.4 41.6919 19.88 39.1719 16.8 39.1719Z" fill="#8CD29C"/>
</svg>
