<svg width="46" height="31" viewBox="0 0 46 31" fill="none" xmlns="http://www.w3.org/2000/svg">
<path d="M45.8332 28.7187C45.823 28.6779 45.8026 28.6473 45.7924 28.6065C44.4146 24.4017 40.516 21.5748 36.0868 21.5748C34.4845 21.5748 32.9638 21.9524 31.5963 22.6158C31.4534 22.4831 31.3105 22.3504 31.1574 22.2177C29.7899 21.0339 27.6773 19.3499 23.6155 19.1867V17.4721C24.2482 17.1659 25.1157 17.1149 26.1158 17.0537C28.1162 16.9312 30.5961 16.7883 32.7087 14.4818C35.4234 11.512 35.9949 6.15402 35.403 4.79666C35.1989 4.3272 34.8723 4.25576 34.6886 4.25576C34.5151 4.25576 34.3518 4.317 34.1885 4.44967C33.6374 4.88851 32.6577 4.93954 31.5248 5.00078C29.5347 5.11304 27.0548 5.24571 25.0238 7.47055C24.4625 8.08289 24.0033 8.78708 23.6155 9.52189C23.6155 9.52189 22.2275 4.84769 19.1658 2.46977C16.8899 0.704191 13.5731 0 11.3687 0C9.23567 0 8.98053 0.561313 8.89889 0.745015C8.84786 0.867483 8.7458 1.20427 9.05197 1.55126C9.52143 2.07175 9.62349 3.05149 9.75616 4.17412C9.97048 6.15402 10.246 8.62379 12.5831 10.5322C14.7671 12.3182 17.9411 12.951 20.1966 12.951C20.7885 12.951 21.2784 12.9102 21.6764 12.8285V19.2173C21.6254 19.2173 21.5845 19.2173 21.5437 19.2275C19.2678 19.401 16.594 20.544 14.6447 22.2177C14.4916 22.3504 14.3487 22.4831 14.2058 22.6158C12.8383 21.9422 11.3176 21.5748 9.71534 21.5748C7.61297 21.5748 5.59225 22.2075 3.8777 23.4118C2.20397 24.5855 0.928262 26.2082 0.193454 28.1064C-0.0820988 28.8106 -0.0616875 29.4331 0.244482 29.8822C0.540447 30.3108 1.05073 30.5354 1.76513 30.5354H10.3073H19.8802H25.9219H35.4949H44.6595C45.2106 30.5354 45.5985 30.3721 45.823 30.0557C46.1496 29.5862 45.9455 29.0249 45.8332 28.7187ZM21.1355 11.1038C20.9008 10.9201 20.5742 10.6445 20.1966 10.3077C20.0129 10.1342 19.8087 9.95052 19.6046 9.74641C19.574 9.726 19.5536 9.69538 19.523 9.66477L19.4822 9.62394L19.472 9.61374C19.472 9.61374 19.4924 9.63415 19.4822 9.62394L19.4618 9.60353C19.4107 9.56271 19.3597 9.51168 19.3087 9.47086C19.2066 9.38922 19.0943 9.29736 18.9821 9.21572C18.533 8.87893 18.0023 8.57276 17.4308 8.2768C16.8695 7.98083 16.2674 7.68487 15.7061 7.33788C15.4305 7.16438 15.1652 6.98068 14.9202 6.78677C14.6753 6.59286 14.461 6.36834 14.2875 6.15402C14.114 5.92949 13.9813 5.71517 13.8895 5.50085C13.869 5.44983 13.8486 5.3988 13.8282 5.34777C13.8078 5.29674 13.7976 5.24571 13.7772 5.20489C13.7568 5.11304 13.7364 5.02119 13.716 4.94975C13.7058 4.8681 13.6955 4.79666 13.6955 4.73543C13.6955 4.6742 13.6955 4.62317 13.6955 4.58235C13.6955 4.5007 13.7058 4.45988 13.7058 4.45988C13.7058 4.45988 13.7262 4.5007 13.7772 4.56193C13.7976 4.59255 13.8282 4.64358 13.8588 4.6844C13.8895 4.72522 13.9303 4.77625 13.9711 4.83749C14.0221 4.88852 14.063 4.94975 14.1242 5.01098C14.1854 5.07222 14.2467 5.13345 14.3181 5.19468C14.4508 5.32736 14.6243 5.44983 14.8182 5.57229C15.0121 5.69476 15.2264 5.81723 15.4713 5.92949C15.7163 6.04176 15.9714 6.15402 16.2572 6.27649C16.8185 6.51122 17.441 6.75615 18.0534 7.08273C18.3595 7.24603 18.6657 7.42972 18.9617 7.63384C19.2576 7.83795 19.523 8.07268 19.7679 8.31762C19.8904 8.44009 20.0027 8.57276 20.1047 8.70544C20.1557 8.77688 20.2068 8.83811 20.2578 8.90955L20.2782 8.92996V8.94017C20.268 8.92996 20.2884 8.96058 20.2884 8.95037L20.2986 8.96058L20.3292 9.01161C20.3496 9.04222 20.3701 9.07284 20.3905 9.10346C20.5436 9.34839 20.6762 9.59333 20.7987 9.80765C20.8599 9.91991 20.9212 10.022 20.9722 10.1342C21.0232 10.2363 21.0742 10.3383 21.1151 10.4302C21.2069 10.6241 21.2784 10.7874 21.3396 10.9303C21.4519 11.216 21.5131 11.3793 21.5131 11.3793C21.5131 11.3793 21.3702 11.2977 21.1355 11.1038ZM23.7992 15.9412C24.0135 15.7269 24.3196 15.4412 24.6973 15.0942C24.8912 14.9207 25.0953 14.7472 25.3198 14.5635C25.3504 14.5431 25.3708 14.5125 25.4014 14.492L25.4423 14.4614L25.4525 14.4512C25.4525 14.4512 25.4321 14.4614 25.4423 14.4614L25.4627 14.441C25.5137 14.4002 25.5647 14.3492 25.6056 14.3083C25.6974 14.2165 25.7995 14.1144 25.8913 14.0124C26.2689 13.6042 26.6363 13.1041 26.9935 12.5734C27.3507 12.0427 27.7181 11.4814 28.1162 10.9711C28.3203 10.7159 28.5346 10.471 28.7591 10.2567C28.9836 10.0424 29.2184 9.84847 29.4633 9.69538C29.698 9.5525 29.9328 9.44024 30.1573 9.3688C30.2083 9.34839 30.2593 9.33818 30.3206 9.32798C30.3716 9.31777 30.4226 9.30757 30.4737 9.29736C30.5757 9.28716 30.6574 9.27695 30.739 9.26675C30.8207 9.26675 30.8921 9.26675 30.9533 9.26675C31.0146 9.26675 31.0656 9.27695 31.1064 9.28716C31.1881 9.29736 31.2289 9.30757 31.2289 9.30757C31.2289 9.30757 31.1881 9.32798 31.1166 9.3688C31.0758 9.38921 31.035 9.40962 30.9839 9.44024C30.9329 9.47086 30.8819 9.50148 30.8207 9.5423C30.7594 9.58312 30.6982 9.62394 30.6267 9.67497C30.5655 9.7362 30.4839 9.77703 30.4226 9.84847C30.2798 9.97094 30.1369 10.124 29.994 10.3077C29.8511 10.4812 29.7082 10.6853 29.5756 10.9201C29.4327 11.1446 29.3 11.3997 29.1469 11.6651C28.851 12.1958 28.5346 12.7877 28.1468 13.3694C27.9529 13.6552 27.7385 13.9409 27.5038 14.2063C27.2691 14.4716 27.0037 14.7166 26.7384 14.9309C26.6057 15.0432 26.4628 15.135 26.32 15.2269C26.2485 15.2677 26.1771 15.3085 26.1056 15.3493L26.075 15.3697H26.0648C26.075 15.3595 26.0444 15.3799 26.0546 15.3799L26.0444 15.3901L25.9934 15.4106C25.9628 15.431 25.9219 15.4412 25.8913 15.4616C25.626 15.5841 25.381 15.6963 25.1463 15.7882C25.0238 15.8392 24.9116 15.88 24.8095 15.9208C24.6973 15.9617 24.5952 16.0025 24.4931 16.0331C24.289 16.1045 24.1155 16.1556 23.9727 16.1964C23.6563 16.2576 23.4828 16.2985 23.4828 16.2985C23.4828 16.2985 23.595 16.1556 23.7992 15.9412Z" fill="#8CD29C"/>
</svg>
