<svg width="89" height="59" viewBox="0 0 89 59" fill="none" xmlns="http://www.w3.org/2000/svg">
<path d="M87.7842 55.1657C87.7648 55.0882 87.7261 55.03 87.7067 54.9524C85.0889 46.9634 77.6816 41.5922 69.2661 41.5922C66.2217 41.5922 63.3325 42.3096 60.7341 43.57C60.4627 43.318 60.1912 43.0659 59.9003 42.8138C57.302 40.5645 53.2881 37.365 45.5705 37.0547V33.7971C46.7728 33.2154 48.421 33.1184 50.3213 33.0021C54.1219 32.7694 58.8338 32.4979 62.8477 28.1156C68.0057 22.4729 69.0915 12.2927 67.9669 9.71376C67.5791 8.82178 66.9586 8.68605 66.6095 8.68605C66.2799 8.68605 65.9696 8.80239 65.6594 9.05447C64.6123 9.88828 62.7508 9.98523 60.5984 10.1016C56.8172 10.3149 52.1052 10.567 48.2465 14.7941C47.18 15.9576 46.3074 17.2956 45.5705 18.6917C45.5705 18.6917 42.9334 9.81071 37.1162 5.29266C32.792 1.93806 26.49 0.600098 22.3016 0.600098C18.249 0.600098 17.7642 1.66659 17.6091 2.01563C17.5121 2.24832 17.3182 2.88821 17.8999 3.5475C18.7919 4.53642 18.9858 6.39794 19.2379 8.53092C19.6451 12.2927 20.1686 16.9853 24.6091 20.6114C28.7587 24.0048 34.7893 25.207 39.0746 25.207C40.1993 25.207 41.1301 25.1294 41.8863 24.9743V37.1129C41.7893 37.1129 41.7118 37.1129 41.6342 37.1323C37.3101 37.4619 32.2297 39.6337 28.5261 42.8138C28.2352 43.0659 27.9637 43.318 27.6923 43.57C25.0939 42.2902 22.2047 41.5922 19.1603 41.5922C15.1658 41.5922 11.3264 42.7944 8.0688 45.0825C4.88872 47.3125 2.46487 50.3956 1.06873 54.0023C0.545184 55.3402 0.583966 56.5231 1.16569 57.3763C1.72802 58.1907 2.69756 58.6173 4.05491 58.6173H20.285H38.4735H49.9529H68.1414H85.5543C86.6014 58.6173 87.3382 58.307 87.7648 57.7059C88.3854 56.8139 87.9975 55.7474 87.7842 55.1657ZM40.8586 21.6973C40.4126 21.3482 39.7921 20.8247 39.0746 20.1848C38.7256 19.8551 38.3378 19.5061 37.95 19.1183C37.8918 19.0795 37.853 19.0213 37.7948 18.9632L37.7173 18.8856L37.6979 18.8662C37.6979 18.8662 37.7367 18.905 37.7173 18.8856L37.6785 18.8468C37.5815 18.7692 37.4846 18.6723 37.3876 18.5947C37.1937 18.4396 36.9804 18.2651 36.7671 18.11C35.9139 17.4701 34.9056 16.8883 33.8197 16.326C32.7532 15.7637 31.6092 15.2013 30.5427 14.5421C30.0191 14.2124 29.515 13.8634 29.0496 13.495C28.5842 13.1265 28.177 12.6999 27.8474 12.2927C27.5177 11.8661 27.2657 11.4589 27.0911 11.0517C27.0524 10.9548 27.0136 10.8578 26.9748 10.7609C26.936 10.6639 26.9166 10.567 26.8778 10.4894C26.8391 10.3149 26.8003 10.1404 26.7615 10.0046C26.7421 9.84949 26.7227 9.71376 26.7227 9.59742C26.7227 9.48107 26.7227 9.38412 26.7227 9.30655C26.7227 9.15143 26.7421 9.07386 26.7421 9.07386C26.7421 9.07386 26.7809 9.15143 26.8778 9.26777C26.9166 9.32594 26.9748 9.4229 27.033 9.50046C27.0911 9.57802 27.1687 9.67498 27.2463 9.79132C27.3432 9.88828 27.4208 10.0046 27.5371 10.121C27.6535 10.2373 27.7698 10.3537 27.9056 10.47C28.1576 10.7221 28.4873 10.9548 28.8557 11.1875C29.2241 11.4201 29.6313 11.6528 30.0967 11.8661C30.5621 12.0794 31.0469 12.2927 31.5898 12.5254C32.6563 12.9714 33.8391 13.4368 35.0026 14.0573C35.5843 14.3675 36.166 14.7166 36.7284 15.1044C37.2907 15.4922 37.7948 15.9382 38.2602 16.4036C38.4929 16.6363 38.7062 16.8883 38.9001 17.1404C38.9971 17.2762 39.094 17.3925 39.191 17.5282L39.2298 17.567V17.5864C39.2104 17.567 39.2492 17.6252 39.2492 17.6058L39.2685 17.6252L39.3267 17.7221C39.3655 17.7803 39.4043 17.8385 39.4431 17.8967C39.7339 18.362 39.986 18.8274 40.2187 19.2346C40.335 19.4479 40.4514 19.6418 40.5483 19.8551C40.6453 20.049 40.7422 20.2429 40.8198 20.4175C40.9943 20.7859 41.1301 21.0961 41.2464 21.3676C41.4597 21.9105 41.576 22.2208 41.576 22.2208C41.576 22.2208 41.3046 22.0657 40.8586 21.6973ZM45.9196 30.8885C46.3268 30.4813 46.9085 29.9383 47.626 29.279C47.9944 28.9494 48.3822 28.6198 48.8088 28.2707C48.867 28.2319 48.9058 28.1738 48.9639 28.135L49.0415 28.0768L49.0609 28.0574C49.0609 28.0574 49.0221 28.0768 49.0415 28.0768L49.0803 28.038C49.1772 27.9605 49.2742 27.8635 49.3517 27.786C49.5263 27.6114 49.7202 27.4175 49.8947 27.2236C50.6121 26.448 51.3102 25.4978 51.9889 24.4895C52.6676 23.4812 53.3656 22.4147 54.1219 21.4452C54.5097 20.9604 54.9169 20.495 55.3435 20.0878C55.7701 19.6806 56.2161 19.3122 56.6814 19.0213C57.1274 18.7499 57.5734 18.5366 58 18.4008C58.097 18.362 58.1939 18.3426 58.3103 18.3233C58.4072 18.3039 58.5042 18.2845 58.6011 18.2651C58.795 18.2457 58.9502 18.2263 59.1053 18.2069C59.2604 18.2069 59.3962 18.2069 59.5125 18.2069C59.6288 18.2069 59.7258 18.2263 59.8034 18.2457C59.9585 18.2651 60.0361 18.2845 60.0361 18.2845C60.0361 18.2845 59.9585 18.3233 59.8228 18.4008C59.7452 18.4396 59.6676 18.4784 59.5707 18.5366C59.4737 18.5947 59.3768 18.6529 59.2604 18.7305C59.1441 18.808 59.0277 18.8856 58.892 18.9825C58.7757 19.0989 58.6205 19.1765 58.5042 19.3122C58.2327 19.5449 57.9612 19.8357 57.6898 20.1848C57.4183 20.5144 57.1468 20.9022 56.8947 21.3482C56.6233 21.7748 56.3712 22.2596 56.0803 22.7637C55.518 23.7721 54.9169 24.8967 54.18 26.002C53.8116 26.5449 53.4044 27.0879 52.9584 27.592C52.5124 28.0962 52.0083 28.5616 51.5041 28.9688C51.252 29.1821 50.9806 29.3566 50.7091 29.5311C50.5734 29.6087 50.4376 29.6862 50.3019 29.7638L50.2437 29.8026H50.2243C50.2437 29.7832 50.1855 29.822 50.2049 29.822L50.1855 29.8414L50.0886 29.8802C50.0304 29.9189 49.9529 29.9383 49.8947 29.9771C49.3905 30.2098 48.9251 30.4231 48.4792 30.5976C48.2465 30.6946 48.0332 30.7721 47.8393 30.8497C47.626 30.9273 47.4321 31.0048 47.2381 31.063C46.8503 31.1987 46.5207 31.2957 46.2492 31.3732C45.6481 31.4896 45.3185 31.5672 45.3185 31.5672C45.3185 31.5672 45.5318 31.2957 45.9196 30.8885Z" fill="#8CD29C"/>
</svg>
