<svg width="108" height="108" viewBox="0 0 108 108" fill="none" xmlns="http://www.w3.org/2000/svg">
<path d="M28.2835 21.6425L19.5383 12.9459L12.6879 19.7963L21.3845 28.493L28.2835 21.6425ZM14.8742 49.1414H0.298828V58.8582H14.8742V49.1414ZM58.6002 0.799805H48.8833V15.1322H58.6002V0.799805V0.799805ZM94.7956 19.7963L87.9452 12.9459L79.2486 21.6425L86.099 28.493L94.7956 19.7963ZM79.2 86.3571L87.8966 95.1023L94.747 88.2519L86.0018 79.5552L79.2 86.3571ZM92.6093 49.1414V58.8582H107.185V49.1414H92.6093ZM53.7417 24.8491C37.6603 24.8491 24.5911 37.9183 24.5911 53.9998C24.5911 70.0813 37.6603 83.1505 53.7417 83.1505C69.8232 83.1505 82.8924 70.0813 82.8924 53.9998C82.8924 37.9183 69.8232 24.8491 53.7417 24.8491ZM48.8833 107.2H58.6002V92.8674H48.8833V107.2ZM12.6879 88.2033L19.5383 95.0537L28.2349 86.3085L21.3845 79.4581L12.6879 88.2033Z" fill="#8CD29C"/>
</svg>
