<svg width="57" height="56" viewBox="0 0 57 56" fill="none" xmlns="http://www.w3.org/2000/svg">
<path d="M14.7288 10.9699L10.126 6.39269L6.52055 9.99817L11.0977 14.5753L14.7288 10.9699ZM7.67123 25.4429H0V30.5571H7.67123V25.4429ZM30.6849 0H25.5708V7.54338H30.6849V0ZM49.7352 9.99817L46.1297 6.39269L41.5525 10.9699L45.158 14.5753L49.7352 9.99817ZM41.5269 45.0301L46.1041 49.6329L49.7096 46.0274L45.1068 41.4502L41.5269 45.0301ZM48.5845 25.4429V30.5571H56.2557V25.4429H48.5845ZM28.1279 12.6575C19.6639 12.6575 12.7854 19.5361 12.7854 28C12.7854 36.4639 19.6639 43.3425 28.1279 43.3425C36.5918 43.3425 43.4703 36.4639 43.4703 28C43.4703 19.5361 36.5918 12.6575 28.1279 12.6575ZM25.5708 56H30.6849V48.4566H25.5708V56ZM6.52055 46.0018L10.126 49.6073L14.7032 45.0046L11.0977 41.3991L6.52055 46.0018Z" fill="#8CD29C"/>
</svg>
